<?xml version="1.0" standalone="no"?>
<!DOCTYPE svg PUBLIC "-//W3C//DTD SVG 20010904//EN"
 "http://www.w3.org/TR/2001/REC-SVG-20010904/DTD/svg10.dtd">
<svg version="1.0" xmlns="http://www.w3.org/2000/svg"
 width="500.000000pt" height="500.000000pt" viewBox="0 0 500.000000 500.000000"
 preserveAspectRatio="xMidYMid meet">
<metadata>
Created by potrace 1.14, written by Peter Selinger 2001-2017
</metadata>
<g transform="translate(0.000000,500.000000) scale(0.100000,-0.100000)"
fill="#000000" stroke="none">
<path d="M2247 4521 c-4 -15 -21 -21 -91 -31 -48 -7 -93 -19 -101 -27 -16 -15
-97 -45 -189 -69 -33 -8 -89 -30 -125 -48 -36 -18 -104 -48 -150 -66 -145 -58
-310 -212 -361 -337 -12 -32 -49 -116 -82 -186 l-59 -128 5 -92 c6 -102 6 -94
5 -302 -1 -143 11 -289 31 -365 5 -19 14 -78 20 -130 13 -116 16 -127 39 -135
10 -3 23 -17 29 -30 11 -24 13 -25 35 -10 22 14 36 12 182 -25 87 -22 162 -45
166 -51 12 -19 -16 -83 -42 -97 -14 -7 -39 -10 -60 -6 -21 3 -40 1 -43 -5 -10
-16 64 -25 109 -13 33 9 43 8 57 -5 26 -23 46 -85 67 -205 33 -184 71 -223
245 -253 100 -17 340 -20 430 -5 33 5 61 8 62 7 2 -1 -20 -31 -47 -66 -51 -66
-62 -108 -38 -152 12 -24 29 -16 22 10 -8 29 29 101 107 210 44 62 90 144 120
212 27 61 55 118 62 126 35 43 105 33 137 -20 10 -18 33 -75 51 -127 18 -52
46 -122 63 -155 39 -80 118 -207 124 -201 11 11 -9 56 -52 119 -51 75 -55 92
-22 84 150 -37 352 -34 482 7 84 26 131 60 158 112 20 38 117 362 117 389 0
33 -12 42 -111 90 -116 54 -150 63 -168 41 -14 -17 -51 -22 -51 -7 0 5 16 19
35 31 24 15 35 29 35 45 0 25 26 46 48 38 6 -3 12 2 12 11 0 9 -4 16 -9 16 -8
0 -11 80 -3 80 2 0 12 -5 23 -10 23 -13 25 3 4 40 -17 29 -19 54 -5 45 15 -9
41 21 34 39 -5 12 -2 15 11 9 15 -5 17 -3 11 18 -15 49 -18 70 -10 68 22 -4
23 3 9 37 -19 46 -20 94 -1 94 8 0 17 7 20 16 9 22 8 24 -9 24 -16 0 -21 35
-6 44 12 8 2 46 -18 69 -15 18 -14 19 18 15 30 -3 36 0 41 22 5 21 28 40 65
53 6 2 6 9 -2 18 -6 8 -13 28 -15 44 -2 22 -9 31 -25 33 -32 5 -29 22 3 22 21
0 24 3 16 13 -9 10 -7 19 5 36 15 22 15 23 -6 16 -12 -4 -30 0 -43 9 -22 16
-22 16 17 16 55 0 75 14 46 31 -11 8 -28 36 -37 64 -9 27 -23 58 -31 67 -13
15 -89 66 -170 114 -18 12 -20 18 -13 51 9 36 7 39 -43 88 -29 27 -70 66 -92
86 -22 20 -80 82 -130 138 -49 56 -108 112 -130 124 -22 12 -44 32 -50 45 -5
12 -17 22 -26 22 -9 0 -24 9 -34 20 -25 28 -36 25 -30 -7 l6 -28 -21 28 c-12
15 -26 25 -31 22 -5 -3 -21 3 -36 13 -16 11 -67 30 -115 42 -82 21 -89 22
-113 6 -18 -12 -30 -14 -44 -7 -14 8 -227 31 -281 31 -4 0 -10 -8 -13 -19z
m153 -21 c12 -8 11 -10 -7 -10 -12 0 -25 5 -28 10 -8 13 15 13 35 0z m638
-179 c44 -32 59 -51 42 -51 -26 0 -100 53 -100 72 0 15 16 9 58 -21z m-162
-848 c29 -13 66 -18 139 -18 79 0 111 -5 154 -22 72 -30 96 -54 136 -138 68
-143 110 -310 121 -487 7 -114 1 -131 -38 -104 -28 20 -52 20 -68 0 -19 -22
-71 -42 -200 -76 -63 -16 -171 -55 -240 -86 -104 -47 -135 -57 -181 -57 -61 0
-97 20 -219 120 -72 59 -139 92 -228 110 -79 17 -131 9 -182 -28 l-25 -17 45
-39 c32 -28 42 -42 35 -50 -6 -6 -78 -18 -161 -26 -82 -8 -185 -19 -228 -25
-83 -10 -114 -8 -238 17 -79 16 -118 40 -118 71 1 42 29 220 39 244 5 15 34
67 64 117 38 62 58 108 66 153 15 75 18 79 86 118 32 18 69 52 95 86 72 96
195 132 402 120 84 -5 120 -3 166 10 70 19 141 13 166 -15 16 -18 19 -17 84 5
78 28 150 32 158 9 5 -11 10 -13 19 -5 20 16 38 -14 31 -52 -7 -36 0 -25 28
45 17 42 34 46 92 20z m-741 -973 c19 -7 19 -8 -5 -17 -14 -6 -86 -25 -160
-43 -154 -37 -180 -50 -180 -86 0 -30 28 -44 142 -69 61 -13 85 -15 109 -6 42
14 154 13 199 -2 21 -7 40 -23 48 -40 l14 -28 31 21 c31 21 114 61 149 73 10
4 20 19 23 34 16 75 42 94 63 48 19 -42 -42 -238 -99 -322 -34 -49 -34 -64 -1
-33 26 25 55 79 72 138 7 23 17 42 22 42 11 0 10 -3 -8 -66 -25 -86 -70 -144
-138 -179 -58 -29 -63 -30 -233 -33 -280 -6 -374 22 -423 124 -57 118 -26 373
50 404 83 35 280 59 325 40z m1386 -20 c37 -11 96 -57 85 -67 -3 -3 -23 6 -43
20 -52 35 -104 47 -193 46 -63 -1 -69 -3 -36 -9 41 -8 56 -22 56 -56 0 -20 6
-22 93 -26 50 -2 98 -8 106 -12 11 -7 12 -32 8 -120 -8 -172 -43 -233 -155
-265 -94 -27 -168 -33 -308 -22 -146 11 -191 30 -228 93 -13 24 -27 61 -31 83
-4 22 -9 48 -12 58 -6 24 14 21 49 -8 33 -28 48 -32 48 -11 0 8 14 17 33 21
17 3 76 15 130 27 86 19 103 20 134 8 35 -12 37 -11 56 14 11 15 20 45 21 68
2 35 -1 43 -28 59 -17 11 -69 31 -116 45 -126 37 -118 34 -99 45 49 27 345 34
430 9z m-1488 -143 c-7 -11 -23 12 -23 33 1 12 4 11 15 -4 8 -10 12 -23 8 -29z
m217 31 c0 -19 -18 -43 -25 -36 -9 9 4 48 16 48 5 0 9 -6 9 -12z m938 0 c16
-16 -1 -44 -38 -63 -37 -19 -40 -6 -10 43 21 35 30 38 48 20z"/>
<path d="M1739 2745 c-15 -8 -29 -21 -32 -29 -5 -12 -1 -13 19 -6 45 18 65 31
59 41 -8 12 -15 11 -46 -6z"/>
<path d="M1860 2720 c14 -4 44 -8 68 -9 23 -1 54 -8 67 -17 17 -11 25 -12 25
-5 0 20 -67 41 -127 40 -44 -1 -52 -3 -33 -9z"/>
<path d="M1255 2517 c-9 -22 42 -247 56 -247 5 0 12 14 16 30 3 17 10 33 14
36 17 10 9 29 -20 46 -22 12 -32 27 -36 55 -4 21 -10 52 -15 68 -6 25 -9 27
-15 12z"/>
<path d="M1190 2512 c0 -5 9 -17 20 -27 16 -14 20 -15 20 -4 0 16 -19 39 -32
39 -4 0 -8 -4 -8 -8z"/>
<path d="M1062 2498 c-17 -17 -15 -83 3 -118 16 -32 42 -42 31 -13 -4 9 -10
36 -13 60 -5 35 -3 43 10 43 28 0 48 -43 45 -98 -4 -65 15 -69 23 -5 12 94
-52 178 -99 131z"/>
<path d="M1466 2484 c-8 -22 2 -33 14 -14 8 12 10 12 16 -3 9 -25 26 -21 22 6
-4 27 -42 36 -52 11z"/>
<path d="M1547 2463 c-4 -3 -7 -15 -7 -25 0 -10 -7 -18 -17 -18 -13 0 -14 -3
-5 -12 15 -15 52 16 52 44 0 18 -11 24 -23 11z"/>
<path d="M1210 2368 c0 -9 5 -20 11 -23 17 -11 20 0 4 21 -13 17 -14 17 -15 2z"/>
<path d="M1262 2228 c-30 -92 -33 -120 -21 -149 15 -37 32 -38 24 0 -3 15 2
58 11 95 11 46 14 70 6 78 -7 7 -13 -1 -20 -24z"/>
<path d="M1290 2012 c6 -13 14 -21 18 -18 3 4 -2 14 -12 24 -18 16 -18 16 -6
-6z"/>
<path d="M1317 1846 c-18 -27 -78 -51 -108 -43 -29 8 -23 -11 9 -27 16 -8 40
-12 53 -9 35 8 79 53 79 80 0 30 -14 29 -33 -1z"/>
<path d="M3357 1757 c-11 -29 -9 -43 4 -30 6 6 9 19 7 29 -3 18 -4 18 -11 1z"/>
<path d="M2923 1676 c-29 -25 -25 -49 5 -28 9 7 27 16 40 22 12 5 22 14 22 20
0 18 -38 10 -67 -14z"/>
<path d="M2470 1640 c0 -31 157 -71 270 -69 l55 1 -45 10 c-25 5 -76 23 -115
39 -69 29 -165 40 -165 19z"/>
<path d="M2370 1619 c0 -12 16 -37 36 -55 34 -33 63 -46 48 -23 -3 6 -1 15 5
19 9 5 -1 19 -30 44 -49 42 -59 44 -59 15z"/>
<path d="M2920 1612 c-24 -21 -30 -31 -21 -36 7 -5 18 -3 24 3 18 18 37 13 37
-9 0 -20 14 -27 24 -12 7 12 -8 75 -20 79 -5 2 -25 -10 -44 -25z"/>
<path d="M3280 1516 c0 -8 -3 -21 -6 -30 -3 -9 -2 -16 4 -16 13 0 22 49 11 56
-5 3 -9 -1 -9 -10z"/>
<path d="M2680 1416 c0 -19 27 -39 40 -31 8 5 6 13 -6 26 -20 22 -34 25 -34 5z"/>
<path d="M3246 1404 c-3 -9 -6 -23 -6 -31 0 -13 3 -13 15 -3 16 13 21 50 6 50
-5 0 -12 -7 -15 -16z"/>
<path d="M3007 1319 c-29 -17 -142 -30 -184 -21 -34 7 -40 5 -77 -30 -37 -37
-42 -38 -85 -32 -25 4 -71 15 -101 25 -39 13 -85 19 -162 19 -84 0 -116 4
-154 20 l-47 21 -29 -28 c-16 -15 -28 -37 -28 -51 0 -24 1 -24 58 -18 41 5
115 -1 241 -19 243 -34 438 -32 546 7 52 19 73 32 83 52 26 52 -11 84 -61 55z"/>
<path d="M3212 1307 c-6 -7 -26 -48 -46 -92 -19 -44 -57 -132 -85 -195 -64
-145 -68 -172 -41 -285 32 -131 36 -235 15 -331 -23 -107 -73 -211 -119 -252
-35 -30 -40 -32 -92 -26 -53 7 -55 6 -105 -36 -28 -23 -68 -51 -90 -62 -21
-10 -39 -21 -39 -23 0 -3 493 -4 1096 -2 l1096 2 -6 37 c-3 20 -20 58 -38 84
-20 30 -31 58 -30 76 2 19 -8 39 -30 65 -18 21 -37 45 -43 54 -82 131 -98 149
-164 180 -151 71 -189 87 -244 104 -32 10 -72 29 -90 42 -17 13 -53 30 -79 38
-25 7 -57 20 -70 28 -12 8 -42 17 -66 21 -49 7 -724 167 -806 191 -31 9 -56
21 -56 28 0 6 25 64 56 129 75 162 112 268 76 225z"/>
<path d="M2516 1100 c15 -15 84 -25 84 -12 0 11 -33 22 -69 22 -17 0 -22 -3
-15 -10z"/>
<path d="M2600 1036 c0 -18 38 -46 61 -46 28 0 42 25 24 44 -21 21 -85 22 -85
2z"/>
<path d="M1390 975 c-58 -13 -148 -42 -200 -65 -283 -125 -357 -149 -542 -174
-58 -9 -133 -25 -165 -37 -32 -12 -125 -44 -208 -72 -232 -77 -238 -79 -255
-112 -12 -24 -16 -81 -18 -267 l-4 -238 869 0 c477 0 892 -3 922 -7 48 -5 53
-4 44 11 -5 9 -47 48 -94 86 -106 89 -185 187 -242 304 -87 177 -118 341 -79
429 20 44 35 58 131 120 19 12 36 28 39 35 6 19 -78 14 -198 -13z"/>
<path d="M2027 717 c-17 -12 -17 -14 2 -38 26 -33 141 -93 206 -108 84 -18
341 -34 377 -23 18 6 46 13 62 17 48 10 17 23 -74 29 -97 7 -245 28 -306 45
-23 6 -74 26 -115 45 -93 43 -129 50 -152 33z"/>
<path d="M2846 621 c-4 -5 -2 -12 3 -15 5 -4 12 -2 15 3 4 5 2 12 -3 15 -5 4
-12 2 -15 -3z"/>
<path d="M2729 594 c-9 -11 -8 -15 5 -20 19 -7 46 1 46 15 0 15 -39 20 -51 5z"/>
<path d="M2365 47 c-61 -13 -85 -23 -85 -35 0 -4 63 -7 140 -7 77 0 140 3 140
6 0 3 -6 13 -14 24 -17 23 -98 29 -181 12z"/>
</g>
</svg>
